<svg width="296" height="139" viewBox="0 0 296 139" fill="none" xmlns="http://www.w3.org/2000/svg">
<path d="M195.886 31.0449C195.707 30.0061 195.933 28.9383 196.516 28.0604C197.099 27.1824 197.996 26.5607 199.023 26.3226C200.05 26.0845 201.129 26.2479 202.039 26.7795C202.949 27.3111 203.622 28.1706 203.919 29.1819C208.178 24.3889 216.162 24.3339 221.503 27.8819C226.844 31.4299 229.821 37.7049 231.048 43.9989C233.248 55.2909 230.265 67.6699 222.493 76.1509C214.721 84.6319 202.149 88.6859 191.086 85.5289C186.413 84.1949 181.513 80.7079 181.65 75.8499C183.835 77.5363 186.372 78.708 189.072 79.2775C191.773 79.8471 194.567 79.7998 197.247 79.1393C199.926 78.4787 202.422 77.222 204.549 75.4626C206.675 73.7032 208.377 71.4867 209.528 68.9781C210.679 66.4694 211.248 63.7335 211.195 60.9741C211.141 58.2147 210.465 55.503 209.218 53.0411C207.97 50.5792 206.183 48.4306 203.99 46.7554C201.796 45.0802 199.253 43.9216 196.55 43.3659" fill="#914A4A"/>
<path d="M135.083 31.0449C135.261 30.0061 135.036 28.9383 134.453 28.0604C133.869 27.1824 132.972 26.5607 131.946 26.3226C130.919 26.0845 129.84 26.2479 128.93 26.7795C128.02 27.3111 127.347 28.1706 127.05 29.1819C122.791 24.3889 114.807 24.3339 109.466 27.8819C104.125 31.4299 101.148 37.7049 99.921 43.9989C97.721 55.2909 100.704 67.6699 108.476 76.1509C116.248 84.6319 128.82 88.6859 139.883 85.5289C144.556 84.1949 149.456 80.7079 149.319 75.8499C147.134 77.5363 144.597 78.708 141.897 79.2775C139.196 79.8471 136.402 79.7998 133.722 79.1393C131.042 78.4787 128.546 77.222 126.42 75.4626C124.293 73.7032 122.591 71.4867 121.441 68.9781C120.29 66.4694 119.72 63.7335 119.774 60.9741C119.828 58.2147 120.504 55.503 121.751 53.0411C122.999 50.5792 124.786 48.4306 126.979 46.7554C129.172 45.0802 131.716 43.9216 134.419 43.3659" fill="#914A4A"/>
<path d="M143.955 138.691C143.688 132.364 143.155 116.509 144.08 107.835C147.68 89.0588 150.047 84.5197 161.191 81.6507C171.154 79.0857 182.072 79.7597 186.056 102.551C186.581 114.594 186.49 126.657 185.781 138.691H143.955Z" fill="#003F53"/>
<path d="M133.554 75.8207C134.174 75.8207 134.074 82.1287 134.454 82.3917C134.834 82.6547 134.434 73.4767 136.107 73.8117C136.789 73.9487 135.8 82.2037 135.974 82.4617C136.148 82.7197 137.881 72.4697 139.474 73.1337C140.042 73.3707 137.663 82.7507 137.984 82.6927C138.305 82.6347 140.029 75.2277 141.399 75.7107C142.22 76.0007 140.233 82.6267 139.667 84.4567C140.215 84.3369 140.703 84.026 141.043 83.5797C140.909 81.6167 142.5 80.4967 143.136 80.6577C143.772 80.8187 143.007 82.9997 142.392 85.0977C141.777 87.1957 137.792 88.3577 137.792 88.3577L137.346 90.2127L133.52 89.7877C133.52 89.7877 133.509 88.0347 133.42 87.4877C133.331 86.9407 132.62 83.8297 132.558 83.3717C132.379 82.0177 132.337 75.8177 133.552 75.8197" fill="#FFBB8D"/>
<path d="M134.852 122.024C141.375 118.696 162.759 93.9508 166.04 84.4348C169.321 74.9188 138.729 88.9718 134.727 105.058C130.725 121.144 134.852 122.025 134.852 122.025" fill="#003F53"/>
<path d="M142.596 100.294C140.25 107.314 141.152 113.67 137.843 120.194C136.883 120.861 135.883 121.47 134.851 122.019C134.851 122.019 132.273 121.446 134.727 105.053C136.444 93.5819 146.603 90.2749 152.262 87.3269C149.856 89.0659 144.962 94.5979 142.596 100.291" fill="#002E46"/>
<path d="M132.364 88.7697C132.893 88.5467 137.564 89.3557 137.957 89.8697C138.188 90.1777 137.957 91.5287 137.733 92.5767C137.873 92.7047 138.015 92.8377 138.157 92.9837C139.996 94.8677 139.135 98.5567 139.099 101.01C139.156 106.686 138.472 112.346 137.063 117.845C136.384 120.245 135.474 121.934 134.255 122.335C132.403 122.844 130.425 122.599 128.755 121.652C121.909 118.104 124.567 109.902 126.01 104.395C126.75 101.568 128.848 94.6437 132.08 92.0867C132.038 90.6867 132.049 88.8997 132.369 88.7647" fill="#003F53"/>
<path d="M124.992 117.347C124.257 115.266 124.084 113.028 124.492 110.86C125.269 103.969 127.88 97.4125 132.053 91.8738C131.96 90.8459 132.055 89.8096 132.334 88.8158C134.254 88.4948 136.226 88.8287 137.934 89.7638C136.489 89.2176 134.925 89.0613 133.401 89.3108C133.256 89.3379 133.125 89.4132 133.028 89.5246C132.932 89.6359 132.876 89.7767 132.87 89.9238C132.846 90.4178 132.814 91.1028 132.823 91.6478C132.824 91.7456 132.845 91.842 132.885 91.9311C132.925 92.0202 132.983 92.1001 133.056 92.1658C133.128 92.2315 133.213 92.2815 133.306 92.3128C133.398 92.3442 133.496 92.3561 133.594 92.3478C134.589 92.1957 135.605 92.2477 136.58 92.5008C135.717 92.4111 134.846 92.5653 134.067 92.9459C133.288 93.3265 132.631 93.9183 132.171 94.6538C131.377 96.1625 130.765 97.7596 130.346 99.4118C129.031 104.784 127.707 110.334 128.971 115.792C129.292 117.155 129.861 118.447 130.651 119.604C131.367 120.855 132.538 121.783 133.92 122.196C130.155 122.396 126.486 120.813 124.996 117.349" fill="#002E46"/>
<path d="M148.668 94.5679C149.151 94.1799 153.033 99.1509 153.493 99.1189C153.953 99.0869 147.881 92.1918 149.393 91.4028C150.01 91.0808 154.423 98.1269 154.719 98.2189C155.015 98.3109 149.93 89.2438 151.59 88.7598C152.18 88.5868 156.218 97.3818 156.431 97.1348C156.644 96.8878 153.336 90.0398 154.706 89.5558C155.527 89.2658 158.14 95.6719 158.849 97.4559C159.2 97.0183 159.385 96.47 159.37 95.9088C158.033 94.4648 158.57 92.5948 159.165 92.3208C159.76 92.0468 160.535 94.2209 161.374 96.2439C162.213 98.2669 159.84 101.67 159.84 101.67L160.658 103.394L157.413 105.466C157.413 105.466 156.304 104.109 155.892 103.738C155.48 103.367 152.971 101.394 152.637 101.076C151.648 100.134 147.723 95.3349 148.67 94.5759" fill="#FFBB8D"/>
<path d="M178.684 129.715C179.997 129.057 180.248 122.909 180.403 121.679C180.863 118.024 181.698 114.194 181.387 110.532C180.974 105.787 179.547 101.185 177.202 97.0399C176.143 95.1679 171.826 88.1719 169.53 90.0989C168.508 90.9559 168.024 94.3919 167.672 95.6519C167.001 98.0067 166.516 100.411 166.224 102.842C165.691 107.46 165.952 112.317 167.936 116.588C174.906 131.588 178.67 129.723 178.685 129.716" fill="#003F53"/>
<path d="M171.071 107.939C173.653 114.876 178.344 119.258 179.871 126.416C179.542 127.538 179.147 128.64 178.688 129.716C178.688 129.716 176.321 130.889 167.939 116.588C162.074 106.581 167.905 97.6288 170.46 91.7808C169.679 94.6448 169.34 102.027 171.075 107.94" fill="#002E46"/>
<path d="M155.871 105.394C156.143 104.888 160.289 102.583 160.918 102.742C161.291 102.842 161.96 104.033 162.443 104.99C162.633 105.002 162.827 105.017 163.03 105.041C165.645 105.353 167.29 108.765 168.802 110.698C172.41 115.08 175.43 119.914 177.786 125.079C178.762 127.371 179.117 129.259 178.42 130.337C177.298 131.897 175.603 132.949 173.706 133.261C166.149 134.797 163.069 126.745 160.734 121.552C159.534 118.887 156.821 112.181 157.734 108.161C156.825 107.1 155.71 105.699 155.874 105.394" fill="#003F53"/>
<path d="M168.073 132.264C166.194 131.107 164.654 129.475 163.608 127.532C159.887 121.68 157.803 114.938 157.573 108.007C156.855 107.265 156.279 106.399 155.873 105.45C157.166 103.995 158.911 103.016 160.827 102.672C159.36 103.154 158.045 104.014 157.015 105.165C156.919 105.277 156.865 105.418 156.86 105.565C156.855 105.712 156.899 105.857 156.987 105.975C157.279 106.375 157.687 106.928 158.033 107.347C158.095 107.422 158.172 107.484 158.26 107.528C158.347 107.572 158.442 107.597 158.539 107.603C158.637 107.609 158.735 107.594 158.826 107.56C158.918 107.527 159.002 107.474 159.072 107.407C159.751 106.662 160.574 106.063 161.492 105.647C160.764 106.119 160.183 106.785 159.815 107.571C159.447 108.356 159.307 109.23 159.411 110.091C159.741 111.763 160.266 113.391 160.977 114.941C163.327 119.947 165.777 125.099 170.19 128.554C171.296 129.413 172.55 130.061 173.89 130.466C175.234 130.991 176.728 130.978 178.062 130.431C175.262 132.953 171.407 134.023 168.073 132.261" fill="#002E46"/>
<path d="M159.674 87.2088C159.674 85.6268 164.98 84.3298 164.98 84.3298C164.98 84.3298 170.297 85.5988 170.301 87.1808C170.305 88.7628 167.93 90.0518 164.995 90.0598C162.06 90.0678 159.678 88.7908 159.674 87.2088Z" fill="#FFBB8D"/>
<path d="M164.892 88.6248H164.968C165.952 88.6165 166.895 88.2258 167.596 87.5354C168.298 86.8449 168.703 85.9087 168.727 84.9247L168.973 69.1248L163.147 69.3398C159.847 69.4618 161.163 74.9827 161.154 77.3307L161.128 84.8498C161.122 85.3463 161.215 85.839 161.402 86.2991C161.589 86.7591 161.865 87.1772 162.216 87.5289C162.567 87.8805 162.984 88.1586 163.443 88.3467C163.903 88.5349 164.395 88.6295 164.892 88.6248Z" fill="#FFBB8D"/>
<path d="M136.568 46.3938C136.022 45.5683 135.201 44.9632 134.25 44.686C133.3 44.4088 132.282 44.4774 131.378 44.8798C130.495 45.3292 129.779 46.0483 129.332 46.9326C128.886 47.817 128.733 48.8206 128.896 49.7978C129.095 50.7682 129.563 51.6629 130.247 52.379C130.932 53.0951 131.804 53.6035 132.765 53.8458C133.731 54.0639 134.736 54.042 135.691 53.7819C136.647 53.5218 137.524 53.0314 138.246 52.3538" fill="#FFBB8D"/>
<path d="M192.39 45.6329C192.807 44.7353 193.529 44.0147 194.427 43.5991C195.326 43.1835 196.342 43.0998 197.297 43.3629C198.236 43.6758 199.052 44.28 199.625 45.0877C200.198 45.8954 200.499 46.8647 200.484 47.8549C200.432 48.8443 200.102 49.7991 199.531 50.6093C198.961 51.4195 198.174 52.0523 197.26 52.4349C196.337 52.7943 195.34 52.9222 194.357 52.8073C193.373 52.6924 192.433 52.3383 191.618 51.7759" fill="#FFBB8D"/>
<path d="M193.487 47.9649C194.165 55.6459 192.693 63.8139 187.849 69.8139C182.672 76.2269 174.349 79.3479 166.172 80.3839C159.29 81.2559 151.854 80.7149 146.158 76.7559C137.125 70.4799 135.308 58.0999 134.284 47.1489C133.71 41.0069 133.203 34.4879 135.976 28.9779C138.876 23.2109 144.884 19.6389 150.976 17.4919C156.998 15.2076 163.5 14.4852 169.876 15.3919C186.345 18.1799 192.162 32.9549 193.487 47.9649Z" fill="#FFA277"/>
<path d="M187.407 60.9929C188.41 58.476 188.958 55.8013 189.027 53.0929C189.066 50.7189 189.417 48.4259 188.1 46.2929C186.881 44.4857 185.171 43.0651 183.171 42.1989C181.182 41.3419 179.148 40.5928 177.078 39.9549C169.474 37.2749 162.592 32.8729 156.97 27.0929C156.655 26.7779 152.058 31.0779 151.257 31.4989C148.425 32.9899 145.545 34.1989 142.982 36.1649C139.845 38.4014 137.6 41.6739 136.641 45.4049C136.234 48.0673 136.271 50.7788 136.752 53.4289C137.059 57.0504 137.8 60.6219 138.958 64.0669C140.29 67.4107 142.355 70.4132 145.001 72.8534C147.647 75.2936 150.807 77.1093 154.247 78.1669C157.7 79.1784 161.324 79.4726 164.895 79.0313C168.466 78.59 171.909 77.4226 175.012 75.6009C180.626 72.2133 184.979 67.0834 187.407 60.9929Z" fill="#FFBB8D"/>
<path d="M136.962 45.8088C136.894 45.8876 136.848 45.9825 136.827 46.0845C136.807 46.1864 136.813 46.2919 136.845 46.3908C136.899 46.4691 136.977 46.5272 137.068 46.5562C137.158 46.5851 137.256 46.5833 137.345 46.5508C137.523 46.4808 137.685 46.3749 137.821 46.2398C139.194 45.0842 140.927 44.4434 142.721 44.4278C143.246 44.4278 143.899 44.4038 144.121 43.9278C144.185 43.7346 144.18 43.5253 144.107 43.3354C144.034 43.1454 143.898 42.9866 143.721 42.8858C141.492 41.4528 138.097 44.0018 136.96 45.8088" fill="#914A4A"/>
<path d="M177.786 46.6879C177.855 46.7654 177.904 46.8595 177.926 46.961C177.949 47.0626 177.945 47.1682 177.915 47.2679C177.863 47.348 177.785 47.4083 177.694 47.4392C177.604 47.4702 177.505 47.4701 177.415 47.4389C177.236 47.3727 177.072 47.2706 176.934 47.1389C175.537 46.0128 173.792 45.4085 171.998 45.4299C171.473 45.4389 170.82 45.4299 170.59 44.9599C170.522 44.7683 170.522 44.5589 170.591 44.3675C170.66 44.1761 170.792 44.0144 170.967 43.9099C173.167 42.4309 176.613 44.9099 177.787 46.6899" fill="#914A4A"/>
<path d="M170.356 51.3128C169.837 51.4098 169.359 51.6579 168.981 52.0258C168.553 52.4178 168.231 52.9128 168.048 53.4637C167.865 54.0146 167.825 54.6033 167.933 55.1738C168.058 55.7409 168.351 56.257 168.774 56.655C169.197 57.053 169.729 57.3143 170.303 57.4048C174.468 57.9138 173.983 50.7448 170.355 51.3128" fill="#1F111E"/>
<path d="M140.786 52.1388C140.267 52.2357 139.789 52.4838 139.411 52.8518C138.982 53.2436 138.661 53.7383 138.478 54.2891C138.294 54.8399 138.255 55.4284 138.363 55.9988C138.488 56.5658 138.781 57.0819 139.204 57.4798C139.626 57.8778 140.159 58.1391 140.733 58.2298C144.898 58.7388 144.414 51.5698 140.785 52.1378" fill="#1F111E"/>
<path d="M150.778 67.3677C152.564 70.7837 157.287 70.4167 159.91 68.2767C160.248 68.0293 160.52 67.7028 160.703 67.3257C160.791 67.136 160.825 66.9256 160.8 66.7179C160.776 66.5101 160.695 66.3131 160.566 66.1487C160.444 66.0294 160.298 65.9377 160.137 65.8797C159.977 65.8218 159.806 65.7989 159.636 65.8127C159.295 65.8419 158.96 65.9114 158.636 66.0197C157.19 66.4793 155.662 66.6181 154.158 66.4267C153.542 66.3057 152.944 65.9847 152.329 65.8147C150.886 65.4147 149.936 65.7607 150.775 67.3667" fill="#FFFBF8"/>
<path d="M187.846 41.6218C185.232 39.5787 182.201 38.1359 178.967 37.3958C171.809 35.7578 164.611 33.1588 159.743 27.2648C155.533 22.1648 153.991 14.4578 157.46 8.83078C158.606 7.09265 160.098 5.60898 161.843 4.47201C163.587 3.33504 165.547 2.56909 167.6 2.22178C171.723 1.55724 175.95 2.00994 179.839 3.53277C198.458 10.3328 208.708 34.1328 194.389 50.0098C195.374 48.9168 189.207 42.7398 188.389 42.0598C188.209 41.9098 188.028 41.7631 187.844 41.6198" fill="#914A4A"/>
<path d="M160.662 19.707C156.444 23.6844 151.713 27.0811 146.596 29.807C143.914 31.0525 141.507 32.8203 139.516 35.007C135.172 40.237 135.477 47.78 136.008 54.558C130.523 44.088 130.048 30.427 136.191 20.014C140.311 13.101 146.901 8.0084 154.629 5.76396C157.648 4.90196 161.278 4.63496 163.562 6.78996C167.541 10.546 164.981 15.3899 160.662 19.7059" fill="#914A4A"/>
<path d="M154.347 48.8989C154.564 51.4543 154.782 54.0103 154.999 56.5669C154.635 56.2299 154.186 55.9995 153.7 55.9011C153.214 55.8027 152.71 55.8401 152.244 56.0091C151.777 56.1781 151.367 56.4722 151.057 56.8592C150.747 57.2462 150.549 57.7111 150.486 58.2029C150.423 58.6948 150.496 59.1945 150.698 59.6474C150.9 60.1003 151.223 60.4888 151.631 60.7703C152.039 61.0518 152.517 61.2154 153.012 61.2432C153.508 61.271 154.001 61.1619 154.438 60.9279" stroke="#FFA277" stroke-width="3" stroke-linecap="round" stroke-linejoin="round"/>
<path d="M110.143 62.3788C109.55 62.1988 107.8 68.2588 107.361 68.3988C106.922 68.5388 109.988 59.8798 108.291 59.7118C107.599 59.6428 106.128 67.8258 105.891 68.0208C105.654 68.2158 106.991 57.9078 105.27 58.0768C104.658 58.1368 104.188 67.8028 103.899 67.6538C103.61 67.5048 104.127 59.9168 102.675 59.9778C101.805 60.0148 101.767 66.9318 101.775 68.8478C101.286 68.5727 100.91 68.1324 100.715 67.6058C101.415 65.7678 100.224 64.2318 99.5681 64.1998C98.9121 64.1678 99.0061 66.4768 98.9801 68.6628C98.9541 70.8488 102.425 73.1268 102.425 73.1268L102.309 75.0268L106.092 75.7408C106.092 75.7408 106.615 74.0678 106.86 73.5708C107.105 73.0738 108.697 70.3078 108.889 69.8878C109.456 68.6448 111.31 62.7298 110.148 62.3758" fill="#FFBB8D"/>
<path d="M107.492 75.1088C107.052 74.7408 102.343 74.1458 101.82 74.5288C101.51 74.7558 101.335 76.1158 101.243 77.1828C101.071 77.2638 100.897 77.3497 100.718 77.4477C98.4081 78.7107 98.1511 82.4908 97.4691 84.8478C95.7532 90.2589 94.7517 95.8711 94.4901 101.542C94.4381 104.032 94.8121 105.917 95.8611 106.657C97.4831 107.688 99.4482 108.032 101.324 107.614C108.909 106.225 108.767 97.6037 108.999 91.9137C109.118 88.9937 109.138 81.7588 106.799 78.3688C107.247 77.0458 107.761 75.3297 107.499 75.1077" fill="#FF6262"/>
<path d="M68.0708 82.6218C69.6438 83.2648 97.5628 93.9518 100.993 95.8918C104.423 97.8318 103.472 108.733 98.0088 107.775C92.5458 106.817 76.2188 102.652 76.2188 102.652" fill="#FF6262"/>
<path d="M82.4421 138.691C82.7091 132.364 83.2421 116.509 82.3181 107.835C78.7181 89.0588 76.3511 84.5197 65.2071 81.6507C55.2441 79.0857 44.3251 79.7597 40.3421 102.551C39.8166 114.594 39.908 126.657 40.6161 138.691H82.4421Z" fill="#FF6262"/>
<path d="M66.9688 112.285C66.7618 111.701 60.8458 113.885 60.4688 113.62C60.0918 113.355 68.8838 110.677 68.0128 109.212C67.6568 108.612 60.1988 112.288 59.8988 112.212C59.5988 112.136 68.6898 107.094 67.5338 105.812C67.1218 105.356 59.0648 110.712 59.0128 110.392C58.9608 110.072 65.3748 105.983 64.4638 104.852C63.9178 104.174 58.3268 108.252 56.7898 109.391C56.7205 108.834 56.8517 108.27 57.1598 107.801C59.0598 107.275 59.5838 105.401 59.2208 104.856C58.8578 104.311 57.0548 105.756 55.2798 107.033C53.5048 108.31 53.7328 112.455 53.7328 112.455L52.1328 113.492L53.8048 116.96C53.8048 116.96 55.4618 116.388 56.0048 116.29C56.5478 116.192 59.7218 115.832 60.1738 115.737C61.5108 115.455 67.3738 113.437 66.9668 112.291" fill="#FFBB8D"/>
<path d="M22.959 126.406C23.931 119.147 40.17 90.7597 48.059 84.5057C55.948 78.2517 52.85 111.773 39.007 120.891C25.164 130.009 22.962 126.408 22.962 126.408" fill="#FF6262"/>
<path d="M40.881 111.884C35.038 116.429 28.744 117.689 23.686 122.978C23.3761 124.106 23.1327 125.251 22.957 126.407C22.957 126.407 24.357 128.648 39.002 120.889C49.252 115.46 49.002 104.779 49.902 98.4619C49.061 101.309 45.468 107.762 40.884 111.885" fill="#FF4D4D"/>
<path d="M55.1498 117.708C55.1848 117.135 52.8678 112.993 52.2498 112.799C51.8828 112.684 50.6848 113.35 49.7718 113.91C49.6048 113.82 49.4318 113.731 49.2458 113.645C46.8578 112.536 43.6638 114.573 41.3618 115.422C35.9898 117.253 30.88 119.778 26.1618 122.933C24.1268 124.369 22.8328 125.789 22.8618 127.073C22.9952 128.99 23.8843 130.776 25.3338 132.038C30.9548 137.317 37.8078 132.087 42.5238 128.896C44.9438 127.259 50.7788 122.981 52.1178 119.084C53.4478 118.659 55.1338 118.054 55.1548 117.708" fill="#FF6262"/>
<path d="M30.6467 134.153C32.8534 134.156 35.0218 133.577 36.9327 132.474C43.1752 129.452 48.4932 124.812 52.3327 119.037C53.3333 118.783 54.2792 118.349 55.1237 117.756C54.7889 115.838 53.819 114.088 52.3697 112.788C53.3647 113.969 54.0314 115.392 54.3027 116.913C54.3244 117.057 54.2967 117.205 54.2241 117.332C54.1516 117.459 54.0384 117.558 53.9027 117.613C53.4447 117.8 52.8097 118.058 52.2917 118.23C52.1993 118.261 52.1015 118.273 52.0043 118.265C51.9071 118.256 51.8127 118.228 51.7269 118.182C51.6411 118.135 51.5657 118.072 51.5054 117.995C51.4452 117.919 51.4014 117.83 51.3767 117.736C51.1899 116.746 50.803 115.805 50.2397 114.97C50.611 115.754 50.7548 116.626 50.6548 117.488C50.5547 118.35 50.2148 119.166 49.6737 119.844C48.5135 121.093 47.2102 122.2 45.7907 123.144C41.1607 126.168 36.3657 129.261 30.7977 129.881C29.4056 130.03 27.9979 129.923 26.6447 129.563C25.2263 129.302 23.9624 128.507 23.1147 127.34C24.1737 130.959 26.8877 133.894 30.6497 134.148" fill="#FF4D4D"/>
<path d="M34.0729 33.2667C29.9939 27.0667 21.5669 24.3137 14.4399 26.3987C7.3129 28.4837 1.8279 34.9667 0.375901 42.2477C-0.267396 45.9154 -0.0832677 49.6805 0.914834 53.2678C1.91294 56.8552 3.6998 60.1743 6.1449 62.9827C9.8109 67.2627 15.0449 70.8707 15.9149 76.4377C16.1565 78.0922 15.9797 79.7808 15.4006 81.3493C14.8216 82.9178 13.8587 84.3162 12.5999 85.4167C11.3181 86.4902 9.78777 87.2253 8.14867 87.555C6.50958 87.8846 4.81401 87.7982 3.2169 87.3037C4.02701 90.5974 5.95424 93.5083 8.67013 95.5402C11.386 97.5721 14.7225 98.5993 18.1109 98.4467C25.0269 98.1547 31.3199 93.7007 35.0739 87.8857C38.8279 82.0707 40.3189 75.0517 40.6979 68.1407C41.3439 56.3757 40.5459 43.1127 34.0729 33.2667Z" fill="#C69200"/>
<path d="M64.075 85.2279C63.96 83.6489 58.569 82.7539 58.569 82.7539C58.569 82.7539 53.362 84.4169 53.475 85.9949C53.588 87.5729 56.055 88.6809 58.981 88.4689C61.907 88.2569 64.189 86.8059 64.075 85.2279Z" fill="#FFBB8D"/>
<path d="M58.9767 87.0319H58.9007C57.9182 87.0974 56.9488 86.7782 56.1974 86.1418C55.4461 85.5054 54.9717 84.6018 54.8747 83.6219L53.4497 67.8879L59.2757 67.6669C62.5757 67.5409 61.6757 73.1459 61.8607 75.4869L62.4487 82.9869C62.492 83.4816 62.436 83.98 62.284 84.4528C62.1321 84.9256 61.8872 85.3633 61.5638 85.7402C61.2404 86.1171 60.8449 86.4256 60.4007 86.6476C59.9564 86.8695 59.4723 87.0005 58.9767 87.0329" fill="#FFBB8D"/>
<path d="M84.0679 42.7989C84.5503 41.9342 85.324 41.2687 86.2511 40.9207C87.1781 40.5728 88.1986 40.5651 89.1309 40.8989C90.0445 41.2811 90.8127 41.9446 91.3237 42.793C91.8347 43.6414 92.0621 44.6305 91.9729 45.6169C91.8473 46.5997 91.4468 47.527 90.8176 48.2923C90.1883 49.0576 89.3558 49.6297 88.4159 49.9429C87.469 50.2326 86.4655 50.2859 85.4932 50.0979C84.521 49.91 83.6096 49.4866 82.8389 48.8649" fill="#FFBB8D"/>
<path d="M28.3449 46.2108C27.8621 45.3464 27.0885 44.6811 26.1615 44.3332C25.2345 43.9853 24.2142 43.9774 23.2819 44.3108C22.3679 44.693 21.5996 45.3566 21.0883 46.2052C20.5771 47.0538 20.3496 48.0432 20.4389 49.0298C20.5648 50.0124 20.9653 50.9395 21.5946 51.7045C22.2238 52.4696 23.0561 53.0416 23.9959 53.3548C24.9428 53.6445 25.9463 53.6978 26.9185 53.5098C27.8908 53.3219 28.8021 52.8985 29.5729 52.2768" fill="#FFBB8D"/>
<path d="M27.4248 48.6178C27.3248 56.3278 29.4008 64.3638 34.6788 69.9838C40.3208 75.9918 48.8548 78.4838 57.0858 78.9048C64.0128 79.2598 71.3858 78.1648 76.7738 73.7918C85.3118 66.8578 86.1998 54.3768 86.4018 43.3798C86.5148 37.2118 86.5348 30.6728 83.3568 25.3848C80.0318 19.8508 73.7758 16.7388 67.5448 15.0518C61.3707 13.2242 54.8344 12.9889 48.5448 14.3678C32.3208 18.3768 27.6248 33.5498 27.4258 48.6168" fill="#FFA277"/>
<path d="M33.5569 61.5448C32.3182 58.677 31.6749 55.5874 31.6661 52.4635C31.6573 49.3396 32.2833 46.2465 33.5059 43.3718C35.1059 39.7958 39.3729 39.4778 42.8059 38.1338C47.5815 36.2667 52.1844 33.985 56.5619 31.3148C59.6859 29.4088 63.0399 26.6408 62.8389 22.9878C62.9019 24.1128 68.9479 27.4518 70.2269 28.1468C73.4899 29.9178 76.9539 30.4218 79.5659 33.3468C82.1229 36.2058 83.0169 40.1688 83.4259 43.9818C84.5119 54.1038 82.2459 65.4358 74.2659 71.7568C69.5921 75.2499 63.8593 77.0297 58.0289 76.7978C49.6969 76.6428 41.3049 72.9368 36.2789 66.2908C35.1779 64.8277 34.261 63.2348 33.5489 61.5478" fill="#FFBB8D"/>
<path d="M39.5677 43.0809C40.3979 42.5393 41.3337 42.1804 42.3131 42.028C43.2926 41.8756 44.2932 41.9331 45.2487 42.1969C45.8867 42.3779 46.5977 42.7869 46.6157 43.4499C46.6367 44.2099 45.7637 44.6359 45.0317 44.8499C42.4487 45.5909 39.6017 46.1629 37.8197 48.1749C37.6359 48.423 37.4077 48.6349 37.1467 48.7999C35.6467 49.5719 36.7647 46.8159 36.9467 46.3449C37.4659 45.0164 38.3796 43.8787 39.5647 43.0849" fill="#C69200"/>
<path d="M74.835 37.0149C73.8754 36.7671 72.8741 36.7258 71.8973 36.8939C70.9206 37.062 69.9906 37.4355 69.169 37.9899C68.621 38.3649 68.078 38.9799 68.269 39.6139C68.492 40.3419 69.456 40.4659 70.215 40.4319C72.9 40.3099 75.78 39.9439 78.115 41.2809C78.3683 41.4575 78.6521 41.5857 78.952 41.6589C80.617 41.9129 78.681 39.6589 78.352 39.2689C77.436 38.1758 76.2073 37.3892 74.831 37.0149" fill="#C69200"/>
<path d="M44.1628 49.8539C44.6871 49.9117 45.1825 50.1233 45.5868 50.4619C46.0432 50.8208 46.4003 51.2904 46.6242 51.8261C46.848 52.3619 46.9312 52.9459 46.8658 53.5229C46.7831 54.0978 46.5289 54.6344 46.1364 55.0626C45.7439 55.4907 45.2314 55.7906 44.6658 55.9229C40.5498 56.7419 40.4978 49.5569 44.1588 49.8519" fill="#1F111E"/>
<path d="M73.4891 45.9879C74.0135 46.0459 74.509 46.2578 74.9131 46.5969C75.3698 46.9553 75.7272 47.4247 75.9511 47.9604C76.1749 48.496 76.2579 49.0801 76.1921 49.6569C76.1093 50.2318 75.855 50.7683 75.4626 51.1965C75.0701 51.6246 74.5577 51.9245 73.9921 52.0569C69.8761 52.8759 69.8241 45.6909 73.4841 45.9859" fill="#1F111E"/>
<path d="M65.3321 65.1448C63.8061 68.6848 59.0681 68.6718 56.2931 66.7338C55.9379 66.5122 55.6422 66.207 55.4321 65.8448C55.3301 65.6623 55.2805 65.455 55.289 65.246C55.2975 65.0371 55.3636 64.8345 55.4801 64.6608C55.593 64.5339 55.7317 64.4326 55.8869 64.3636C56.0421 64.2946 56.2103 64.2596 56.3801 64.2608C56.7208 64.2649 57.0598 64.3092 57.3901 64.3928C58.867 64.7438 60.4028 64.7684 61.8901 64.4648C62.4961 64.2978 63.0671 63.9328 63.6681 63.7178C65.0771 63.2178 66.0501 63.4848 65.3331 65.1488" fill="#FFFBF8"/>
<path d="M58.7769 48.8508L58.9899 54.7508C59.194 54.3339 59.5184 53.9877 59.9211 53.7568C60.3238 53.5259 60.7864 53.4209 61.2493 53.4554C61.7122 53.4898 62.1543 53.662 62.5184 53.9499C62.8825 54.2378 63.1521 54.6282 63.2924 55.0707C63.4326 55.5132 63.4372 55.9876 63.3054 56.4327C63.1736 56.8778 62.9116 57.2732 62.553 57.5681C62.1945 57.8629 61.7558 58.0436 61.2936 58.0868C60.8315 58.1301 60.3669 58.034 59.9599 57.8108" stroke="#FFA277" stroke-width="3" stroke-linecap="round" stroke-linejoin="round"/>
<path d="M32.5761 41.8698C35.0301 39.6371 37.9454 37.9717 41.1151 36.9918C48.1291 34.8238 55.1151 31.6918 59.5281 25.4538C63.3451 20.0538 64.3071 12.2538 60.4281 6.90083C59.1547 5.25374 57.5561 3.8862 55.7317 2.88325C53.9073 1.8803 51.8961 1.26337 49.8231 1.07083C45.6614 0.716528 41.4807 1.4838 37.7161 3.29283C19.6571 11.4638 11.2161 35.9608 26.6791 50.7268C25.6151 49.7108 31.3041 43.0908 32.0661 42.3508C32.2341 42.1882 32.4044 42.0282 32.5771 41.8708" fill="#C69200"/>
<path d="M59.017 16.8658C60.1549 19.6137 62.194 21.8926 64.799 23.3278C67.3856 24.7427 70.069 25.9731 72.829 27.0098C75.596 28.0514 78.1278 29.6335 80.277 31.6638C84.999 36.5558 85.259 44.0988 85.235 50.8978C88.91 42.3928 90.492 32.5978 87.513 23.8248C84.835 15.9408 78.78 11.0878 71.313 8.02482C65.144 5.49982 56.073 8.63082 59.02 16.8608" fill="#C69200"/>
<path d="M195.894 119.788C195.936 119.17 202.223 119.694 202.51 119.335C202.797 118.976 193.61 118.753 194.062 117.108C194.244 116.436 202.413 117.979 202.683 117.823C202.953 117.667 192.841 115.247 193.612 113.7C193.886 113.149 203.085 116.154 203.049 115.831C203.013 115.508 195.739 113.287 196.313 111.953C196.657 111.153 203.135 113.583 204.922 114.27C204.839 113.715 204.562 113.207 204.14 112.837C202.172 112.837 201.162 111.176 201.366 110.552C201.57 109.928 203.694 110.838 205.746 111.593C207.798 112.348 208.688 116.403 208.688 116.403L210.509 116.973L209.827 120.762C209.827 120.762 208.077 120.654 207.527 120.706C206.977 120.758 203.827 121.26 203.363 121.289C201.999 121.376 195.812 121 195.895 119.789" fill="#CB4D25"/>
<path d="M208.732 121.851C208.545 121.308 209.667 116.697 210.211 116.345C210.534 116.136 211.866 116.457 212.896 116.752C213.033 116.62 213.176 116.488 213.331 116.352C215.331 114.643 218.958 115.752 221.403 115.952C227.07 116.277 232.671 117.341 238.063 119.117C240.408 119.956 242.036 120.978 242.354 122.217C242.738 124.1 242.36 126.059 241.301 127.663C237.301 134.255 229.296 131.05 223.901 129.24C221.131 128.311 214.364 125.752 212.03 122.355C210.63 122.302 208.849 122.171 208.735 121.843" fill="#FFBC50"/>
<path d="M250.391 83.1348C244.054 86.5598 240.16 93.2348 237.537 99.9398C234.914 106.645 233.211 113.765 229.659 120.031C232.284 123.031 235.986 124.103 239.972 124.187" fill="#FFBC50"/>
<path d="M237.598 138.702C237.331 132.375 236.798 116.52 237.722 107.846C241.322 89.0698 243.69 84.5308 254.833 81.6618C264.796 79.0968 275.715 79.7698 279.698 102.562C280.224 114.606 280.132 126.668 279.423 138.703L237.598 138.702Z" fill="#FFBC50"/>
<path d="M267.121 133.845C267.319 135.458 267.313 137.09 267.102 138.702H278.802C279.102 135.214 279.276 131.69 279.654 128.225C274.316 130.076 268.469 129.785 263.342 127.414C264.398 128.15 265.282 129.106 265.934 130.216C266.586 131.326 266.99 132.564 267.119 133.845" fill="#FF9443"/>
<path d="M291.648 120.384C290.676 113.124 279.871 90.7699 271.984 84.5139C264.097 78.2579 266.948 112.163 281.036 120.898C291.974 127.681 291.648 120.383 291.648 120.383" fill="#FFBC50"/>
<path d="M247.128 133.112C246.898 132.537 252.786 130.275 252.889 129.826C252.992 129.377 244.625 133.172 244.312 131.496C244.184 130.812 252.212 128.647 252.386 128.39C252.56 128.133 242.404 130.351 242.425 128.622C242.433 128.008 252.025 126.712 251.849 126.436C251.673 126.16 244.16 127.325 244.097 125.873C244.059 125.004 250.948 124.373 252.857 124.215C252.541 123.751 252.071 123.414 251.53 123.265C249.758 124.122 248.13 123.065 248.038 122.414C247.946 121.763 250.259 121.659 252.438 121.446C254.617 121.233 257.18 124.498 257.18 124.498L259.068 124.219L260.102 127.928C260.102 127.928 258.48 128.592 258.002 128.878C257.524 129.164 254.907 130.988 254.502 131.215C253.312 131.887 247.577 134.24 247.125 133.115" fill="#CB4D25"/>
<path d="M259.586 129.381C259.186 128.974 258.186 124.334 258.523 123.781C258.723 123.452 260.062 123.161 261.118 122.981C261.184 122.803 261.255 122.622 261.337 122.435C262.398 120.025 266.143 119.447 268.432 118.565C273.676 116.391 279.181 114.912 284.809 114.165C287.286 113.9 289.195 114.112 290.023 115.093C291.189 116.621 291.7 118.55 291.444 120.455C290.709 128.131 282.107 128.727 276.46 129.445C273.56 129.813 266.354 130.453 262.776 128.409C261.496 128.968 259.831 129.627 259.586 129.38" fill="#FFBC50"/>
<path d="M288.848 125.553C287.193 127.012 285.182 128.009 283.019 128.442C276.336 130.294 269.279 130.32 262.583 128.517C261.664 128.987 260.667 129.285 259.641 129.398C258.626 127.736 258.199 125.781 258.429 123.848C258.462 125.392 258.9 126.901 259.701 128.222C259.78 128.346 259.899 128.44 260.038 128.487C260.177 128.535 260.328 128.534 260.467 128.485C260.935 128.323 261.582 128.097 262.084 127.885C262.174 127.847 262.255 127.791 262.323 127.721C262.39 127.651 262.442 127.567 262.476 127.476C262.51 127.384 262.525 127.287 262.519 127.19C262.514 127.092 262.489 126.997 262.445 126.91C261.931 126.043 261.6 125.081 261.472 124.082C261.711 124.916 262.179 125.666 262.823 126.246C263.467 126.827 264.261 127.216 265.115 127.368C266.812 127.541 268.524 127.513 270.215 127.285C275.688 126.499 281.333 125.656 285.923 122.446C287.067 121.64 288.053 120.629 288.832 119.466C289.725 118.334 290.149 116.902 290.016 115.466C291.61 118.883 291.509 122.879 288.852 125.555" fill="#FF9443"/>
<path d="M254.238 84.4738C254.353 82.8958 259.744 81.9998 259.744 81.9998C259.744 81.9998 264.951 83.6628 264.837 85.2408C264.723 86.8188 262.258 87.9267 259.331 87.7157C256.404 87.5047 254.123 86.0527 254.237 84.4747" fill="#CB4D25"/>
<path d="M259.336 86.2838H259.412C260.394 86.3493 261.364 86.03 262.115 85.3934C262.867 84.7568 263.341 83.8529 263.438 82.8728L264.863 67.1388L259.036 66.9178C255.736 66.7928 256.636 72.3968 256.452 74.7378L255.864 82.2378C255.821 82.7326 255.877 83.231 256.028 83.7038C256.18 84.1766 256.425 84.6143 256.749 84.9911C257.072 85.368 257.468 85.6765 257.912 85.8985C258.356 86.1205 258.84 86.2515 259.336 86.2838Z" fill="#CB4D25"/>
<path d="M290.887 47.8699C290.987 55.5799 288.911 63.6159 283.633 69.2369C277.991 75.2439 269.457 77.7369 261.226 78.1579C254.299 78.5129 246.926 77.4179 241.538 73.0449C233 66.1119 232.112 53.6309 231.91 42.6329C231.796 36.4649 231.777 29.9259 234.955 24.6389C238.28 19.1049 244.536 15.9929 250.767 14.3059C256.941 12.478 263.477 12.2427 269.767 13.6219C285.991 17.6299 290.687 32.8029 290.886 47.8699" fill="#BA3C1F"/>
<path d="M283.792 60.3799C285.21 57.2859 286.941 52.7559 286.101 49.3359C285.479 46.7999 283.38 44.9149 281.244 43.4139C276.714 40.2339 271.571 38.0313 266.144 36.9459C262.91 36.3019 259.602 36.0609 256.384 35.3399C253.117 34.7556 250.083 33.255 247.637 31.0129C235.213 37.2869 232.937 53.4509 240.657 64.2929C248.357 75.1109 265.641 77.6529 276.282 69.6929C279.519 67.2602 282.1 64.06 283.793 60.3809" fill="#CB4D25"/>
<path d="M264.896 45.7987C264.372 45.8563 263.876 46.0679 263.472 46.4067C263.015 46.7651 262.658 47.2345 262.434 47.7702C262.21 48.3058 262.127 48.8899 262.193 49.4667C262.276 50.0415 262.53 50.578 262.923 51.0061C263.315 51.4343 263.827 51.7342 264.393 51.8667C268.509 52.6847 268.561 45.5007 264.9 45.7957" fill="#1F111E"/>
<path d="M239.177 43.6129C238.652 43.671 238.157 43.8829 237.753 44.2219C237.296 44.5806 236.939 45.05 236.715 45.5856C236.491 46.1211 236.408 46.705 236.473 47.2819C236.556 47.8568 236.81 48.3933 237.202 48.8215C237.595 49.2496 238.107 49.5495 238.673 49.6819C242.789 50.5009 242.841 43.3159 239.18 43.6109" fill="#1F111E"/>
<path d="M237.163 37.5899C236.297 37.8111 235.54 38.3386 235.032 39.0749C234.901 39.2744 234.847 39.5144 234.879 39.7508C234.979 40.2088 235.512 40.4069 235.973 40.4909C237.573 40.7909 242.787 40.9718 243.365 38.7768C244.065 36.1288 238.187 37.2429 237.165 37.5899" fill="#1F111E"/>
<path d="M270.512 45.0778C271.353 45.3839 272.277 45.3747 273.112 45.0518C273.332 44.9608 273.512 44.7936 273.62 44.5807C273.799 44.1487 273.466 43.6807 273.133 43.3517C271.977 42.2047 267.777 39.1137 266.062 40.5997C263.993 42.3937 269.473 44.7867 270.514 45.0767" fill="#1F111E"/>
<path d="M249.036 64.2388C251.067 67.5148 255.751 66.8028 258.21 64.4778C258.529 64.2059 258.776 63.8602 258.931 63.4708C259.005 63.2751 259.023 63.0628 258.984 62.8573C258.945 62.6518 258.849 62.4613 258.708 62.3068C258.578 62.1967 258.425 62.1158 258.261 62.0695C258.097 62.0233 257.925 62.0128 257.756 62.0388C257.42 62.0939 257.091 62.1878 256.777 62.3188C255.369 62.8829 253.855 63.1334 252.341 63.0528C251.717 62.9768 251.098 62.7008 250.472 62.5768C249.004 62.2858 248.082 62.6978 249.037 64.2378" fill="#FFFBF8"/>
<path d="M268.809 99.8658C269.299 105.69 271.633 111.206 275.473 115.612C271.464 116.494 267.551 117.766 263.79 119.412C266.642 113.257 268.343 106.631 268.809 99.8638" fill="#FF9443"/>
<path d="M237.616 130.445C236.688 119.374 237.767 108.226 240.8 97.5378C238.329 104.604 236.508 111.881 235.36 119.279C234.537 118.396 233.44 117.817 232.247 117.636C233.187 120.46 233.58 123.438 233.404 126.409C228.229 126.861 223.019 126.128 218.169 124.266C217.231 123.905 216.307 123.502 215.407 123.051C215.034 122.898 214.697 122.671 214.414 122.384C214.132 122.096 213.911 121.755 213.764 121.38C213.524 120.625 213.445 119.827 213.532 119.04C213.55 118.899 213.544 118.756 213.513 118.617C213.497 118.548 213.463 118.484 213.414 118.432C213.365 118.38 213.303 118.343 213.235 118.323C213.155 118.314 213.075 118.329 213.003 118.366C212.932 118.403 212.874 118.461 212.835 118.531C212.761 118.673 212.713 118.828 212.695 118.987C212.638 119.419 212.485 119.832 212.248 120.198C211.636 121.046 210.218 121.034 209.299 120.887C209.246 120.934 209.203 120.991 209.174 121.055C209.144 121.12 209.128 121.189 209.127 121.26C209.126 121.331 209.139 121.401 209.167 121.466C209.194 121.531 209.235 121.59 209.286 121.639C209.507 121.826 209.788 121.927 210.077 121.925C210.718 121.885 211.36 121.971 211.967 122.18C212.46 122.526 212.887 122.957 213.228 123.453C214.089 124.211 215.069 124.823 216.128 125.264C217.892 126.225 219.713 127.078 221.581 127.816C224.7 129.053 227.966 129.879 231.298 130.272C233.396 130.506 235.51 130.563 237.617 130.441" fill="#FF9443"/>
<path d="M291.317 19.3768C288.623 14.6834 284.825 10.7182 280.252 7.82544C275.679 4.93265 270.469 3.19963 265.074 2.77682C260.575 2.35036 256.049 3.23862 252.046 5.33382C250.062 6.39685 248.344 7.89537 247.021 9.71696C245.699 11.5386 244.806 13.6359 244.41 15.8518C243.638 21.3088 246.744 26.8668 251.341 29.9088C256.863 33.5648 263.852 33.8938 270.241 35.6368C279.251 38.0938 287.216 44.3808 290.89 53.0758C297.101 43.2308 296.99 29.5058 291.317 19.3808" fill="#1F111E"/>
<path d="M236.031 14.7969C231.749 17.4249 228.959 21.9919 227.393 26.7659C225.141 33.7453 225.181 41.2618 227.507 48.2169C227.869 49.6564 228.438 51.0355 229.198 52.3109C230.056 53.5307 231.218 54.5049 232.569 55.1369C232.628 55.1699 232.694 55.1881 232.762 55.1899C232.826 55.1794 232.885 55.1477 232.929 55.0999C232.973 55.0521 233 54.9908 233.006 54.9259C233.013 54.7952 232.991 54.6645 232.943 54.5429C232.619 53.5084 232.426 52.4374 232.369 51.3549C232.372 50.3245 232.474 49.2968 232.674 48.2859C232.982 45.9159 233.246 43.5339 233.774 41.1999C234.548 37.7949 235.965 34.4089 238.549 32.0599C240.526 30.4801 242.703 29.1687 245.024 28.1599C249.095 26.0779 255.186 20.8029 251.333 15.7699C247.998 11.4129 240.094 12.2989 236.033 14.7929" fill="#1F111E"/>
<path d="M248.735 48.2388C249.036 49.7321 249.043 51.27 248.754 52.7658C247.833 52.7917 246.929 53.0172 246.105 53.4268C245.926 53.4949 245.762 53.5976 245.623 53.729C245.484 53.8604 245.372 54.018 245.294 54.1928C245.062 54.9148 245.915 55.5568 246.672 55.5928C247.423 55.5072 248.179 55.4615 248.936 55.4558" stroke="#BA3C1F" stroke-width="3" stroke-linecap="round" stroke-linejoin="round"/>
<path d="M284.987 47.4968C285.918 46.2145 287.059 45.0988 288.362 44.1968C289.017 43.7511 289.766 43.4612 290.551 43.3492C291.336 43.2373 292.136 43.3062 292.89 43.5508C293.881 44.0225 294.677 44.8255 295.139 45.8212C295.602 46.8169 295.703 47.9429 295.424 49.0048C295.106 50.0556 294.548 51.018 293.794 51.8163C293.04 52.6146 292.111 53.2268 291.081 53.6048C289.01 54.3432 286.801 54.6133 284.614 54.3958" fill="#CB4D25"/>
<path d="M289.559 45.9439C288.382 46.5128 287.463 47.5064 286.988 48.7249C286.657 49.3332 286.551 50.0383 286.688 50.7169C286.794 51.0774 287.013 51.3942 287.312 51.6204C287.612 51.8465 287.977 51.9699 288.353 51.9723C288.728 51.9746 289.095 51.8558 289.397 51.6334C289.7 51.4111 289.923 51.097 290.033 50.7379C290.135 50.1522 290.155 49.5553 290.094 48.9639C290.068 48.6676 290.131 48.3702 290.273 48.1089C290.415 47.8477 290.631 47.6341 290.894 47.4949C291.195 47.4209 291.508 47.4154 291.811 47.4789C292.911 47.6039 293.257 46.8869 292.385 46.1919C291.971 45.9193 291.495 45.7539 291.001 45.7106C290.507 45.6674 290.01 45.7475 289.554 45.9439" fill="#BA3C1F"/>
</svg>
