<svg width="120" height="120" viewBox="0 0 120 120" fill="none" xmlns="http://www.w3.org/2000/svg">
<path d="M85.0267 40.9053C103.359 41.0448 118.267 56.0954 118.241 74.4281C118.223 87.2285 111.019 98.3431 100.448 103.959C100.015 104.189 99.7462 104.639 99.7462 105.129V113.213C99.7462 114.346 98.4197 114.96 97.5566 114.226L90.0951 107.884C89.8076 107.639 89.4303 107.532 89.0561 107.58C87.6513 107.76 86.2197 107.854 84.7659 107.854C66.2783 107.854 51.291 92.8672 51.291 74.3795C51.2913 55.8049 66.4195 40.7637 85.0267 40.9053Z" fill="#D46795"/>
<path d="M118.241 74.4291C118.222 87.2295 111.019 98.3441 100.448 103.96C100.014 104.19 99.7471 104.64 99.7471 105.13V113.215C99.7471 114.347 98.4199 114.959 97.557 114.225L93.9553 111.165C93.9576 111.156 93.9576 111.147 93.9576 111.137V103.052C93.9576 102.562 94.2273 102.112 94.6588 101.882C105.229 96.2663 112.435 85.1518 112.454 72.3513C112.472 58.9482 104.509 47.2993 93.0596 41.9507C107.523 45.6675 118.262 58.8643 118.241 74.4291Z" fill="#D46795"/>
<path d="M34.9735 5.45363C16.6411 5.59314 1.7328 20.6437 1.75882 38.9766C1.77711 51.7771 8.98093 62.8917 19.5522 68.5075C19.9846 68.7373 20.2537 69.188 20.2537 69.6776V77.7619C20.2537 78.8947 21.5802 79.5081 22.4434 78.7744L29.9049 72.4321C30.1924 72.1878 30.5696 72.0806 30.9439 72.1287C32.3487 72.3088 33.7802 72.403 35.234 72.403C53.7217 72.403 68.7089 57.4157 68.7089 38.9281C68.7089 20.3532 53.5807 5.31223 34.9735 5.45363Z" fill="#0A7E89"/>
<path d="M68.7088 38.9279C68.7088 57.4146 53.7206 72.4026 35.2341 72.4026C33.7803 72.4026 32.3476 72.3088 30.9431 72.1283C30.5702 72.079 30.1927 72.1869 29.9043 72.4308L22.443 78.7736C21.5801 79.5075 20.2529 78.8931 20.2529 77.7606V73.7509L26.4621 68.4727C26.7505 68.2288 27.128 68.1233 27.5008 68.1702C28.9054 68.3507 30.3381 68.4445 31.7919 68.4445C50.2786 68.4445 65.2666 53.4563 65.2666 34.9698C65.2666 27.5133 62.828 20.6241 58.7034 15.0598C64.8797 21.1329 68.7088 29.5814 68.7088 38.9279Z" fill="#0A7E89"/>
<path d="M84.7714 85.4145C86.817 87.7265 89.0228 89.9342 91.3843 92.0251C93.0405 93.4915 95.167 94.2618 97.3123 94.2618C98.4798 94.2618 99.6532 94.0334 100.759 93.5652C101.653 93.1862 102.071 92.154 101.692 91.2597C101.313 90.3654 100.281 89.9473 99.3868 90.3265C97.4905 91.13 95.2643 90.7628 93.7158 89.3916C91.3297 87.2789 89.1122 85.0421 87.0663 82.6959C93.4082 74.8079 96.3275 67.8617 97.3332 65.0859H100.073C101.044 65.0859 101.832 64.2985 101.832 63.3273C101.832 62.3561 101.044 61.5687 100.073 61.5687H96.0447C96.0426 61.5687 96.0405 61.5687 96.0384 61.5687H86.5253V55.3792C86.5253 54.408 85.7382 53.6206 84.7667 53.6206C83.7952 53.6206 83.0081 54.408 83.0081 55.3792V61.5687H69.4603C68.4891 61.5687 67.7017 62.3561 67.7017 63.3273C67.7017 64.2985 68.4888 65.0859 69.4603 65.0859H93.554C92.3455 68.0524 89.6857 73.6324 84.7587 79.9109C82.7644 77.371 80.9636 74.7155 79.3694 71.9556C78.884 71.1145 77.8079 70.8266 76.9671 71.3122C76.126 71.798 75.838 72.8736 76.3239 73.7147C78.1275 76.8373 80.1828 79.8307 82.4697 82.6814C79.715 85.8483 76.3839 89.1163 72.3782 92.2579C71.6138 92.8572 71.4801 93.9628 72.0797 94.727C72.4265 95.1693 72.9431 95.4005 73.4646 95.4005C73.8442 95.4005 74.2269 95.2781 74.5486 95.0255C78.5784 91.8651 81.9541 88.5953 84.7714 85.4145Z" fill="white"/>
<path d="M85.0401 39.1469C79.8749 39.1066 74.8783 40.1749 70.3112 42.2322C70.413 41.144 70.4674 40.0419 70.4674 38.9276C70.4674 29.4655 66.7686 20.584 60.0521 13.9183C53.4014 7.31827 44.5989 3.69385 35.2362 3.69385C35.1445 3.69385 35.0519 3.69408 34.96 3.69502C27.0682 3.75505 19.6153 6.38901 13.4069 11.312C12.646 11.9156 12.5182 13.0216 13.1215 13.7825C13.7253 14.5437 14.8312 14.6712 15.5923 14.0677C21.1803 9.63661 27.8865 7.26598 34.9865 7.21181C35.0697 7.21111 35.1522 7.21087 35.2355 7.21087C43.6631 7.21087 51.5882 10.474 57.5743 16.4146C63.6202 22.4148 66.9499 30.41 66.9499 38.9274C66.9499 56.4159 52.7219 70.6437 35.2336 70.6437C33.8806 70.6437 32.5126 70.5563 31.1672 70.3839C30.3019 70.2725 29.4259 70.5305 28.7656 71.0918L22.012 76.8322V69.6772C22.012 68.5334 21.3854 67.4899 20.3767 66.9539C9.99445 61.4383 3.53395 50.7168 3.5173 38.9738C3.50721 31.8685 5.81899 25.1362 10.2034 19.5053C10.8001 18.7388 10.6625 17.6342 9.89596 17.0374C9.12991 16.4409 8.02455 16.578 7.42802 17.3448C2.55732 23.6006 -0.0112184 31.0816 3.68315e-05 38.979C0.0185611 51.9363 7.0981 63.7736 18.495 69.936V77.7617C18.495 78.9791 19.1815 80.0531 20.2867 80.564C20.7078 80.7589 21.1517 80.8543 21.5913 80.8543C22.3053 80.8543 23.0081 80.6022 23.5821 80.1141L30.8985 73.8951C32.334 74.0716 33.7918 74.1612 35.2336 74.1612C40.384 74.1612 45.2796 73.05 49.6938 71.0555C49.5911 72.154 49.5327 73.262 49.5327 74.3795C49.5327 81.0858 51.4245 87.6091 55.0034 93.2444C58.486 98.7276 63.401 103.14 69.2178 106.005C70.0896 106.434 71.1434 106.076 71.5725 105.205C72.0016 104.333 71.6431 103.279 70.7718 102.85C65.5346 100.27 61.1087 96.2967 57.9725 91.3587C54.7523 86.288 53.0499 80.4165 53.0499 74.3795C53.0499 72.5737 53.2035 70.7926 53.4976 69.048C61.5955 64.1194 67.5572 56.0178 69.6488 46.4834C74.2367 43.9885 79.398 42.663 84.7646 42.663C84.8474 42.663 84.9304 42.6632 85.0134 42.6639C102.39 42.7959 116.507 57.0443 116.483 74.4257C116.466 86.1687 110.006 96.8902 99.6231 102.406C98.6144 102.942 97.9879 103.985 97.9879 105.129V112.284L91.234 106.543C90.5744 105.983 89.6998 105.725 88.8329 105.836C85.2118 106.3 81.5083 106.136 77.9861 105.37C77.036 105.163 76.0999 105.765 75.8936 106.714C75.6868 107.663 76.2889 108.6 77.2377 108.806C81.0928 109.646 85.1374 109.835 89.1014 109.347L96.4177 115.566C96.9918 116.054 97.6945 116.306 98.4088 116.306C98.8482 116.306 99.2923 116.211 99.7132 116.016C100.818 115.505 101.505 114.431 101.505 113.214V105.388C112.902 99.2254 119.981 87.3882 120 74.4309C120.027 55.1221 104.344 39.2937 85.0401 39.1469Z" fill="white"/>
<path d="M21.4437 55.7066C22.3502 56.0522 23.3672 55.5966 23.7128 54.6891L26.4 47.6337H44.0913L46.752 54.6842C47.0177 55.3884 47.6869 55.8224 48.3976 55.8224C48.604 55.8224 48.8138 55.7858 49.0183 55.7087C49.9269 55.3658 50.3856 54.351 50.0425 53.4424L37.635 20.5637C37.6292 20.5476 37.6226 20.5314 37.616 20.5154C37.2268 19.5688 36.3142 18.9575 35.2909 18.9575C35.29 18.9575 35.289 18.9575 35.2881 18.9575C34.2636 18.9587 33.351 19.5721 32.9634 20.5204C32.9583 20.5335 32.9529 20.5466 32.9479 20.56L20.4263 53.437C20.0804 54.3449 20.536 55.3609 21.4437 55.7066ZM35.2864 24.3019L42.7641 44.1165H27.7398L35.2864 24.3019Z" fill="white"/>
<path d="M2 40C2 20.67 17.67 5 37 5" stroke="white" stroke-width="3"/>
<path d="M86.2517 107.745C66.9238 108.025 51.0283 92.5836 50.7481 73.2556" stroke="white" stroke-width="3"/>
</svg>
